<svg width="26" height="25" viewBox="0 0 26 25" fill="none" xmlns="http://www.w3.org/2000/svg">
<path fill-rule="evenodd" clip-rule="evenodd" d="M7.11763 21.11C7.98042 21.11 8.6825 21.8109 8.6825 22.6737C8.6825 23.5365 7.98042 24.2386 7.11763 24.2386C6.25484 24.2386 5.55397 23.5365 5.55397 22.6737C5.55397 21.8109 6.25484 21.11 7.11763 21.11ZM20.7486 21.11C21.6126 21.11 22.3147 21.8109 22.3147 22.6737C22.3147 23.5365 21.6126 24.2386 20.7486 24.2386C19.8859 24.2386 19.185 23.5365 19.185 22.6737C19.185 21.8109 19.8859 21.11 20.7486 21.11ZM1.95079 0.636983L4.46425 1.072C4.86906 1.1433 5.1772 1.47923 5.21224 1.89008L5.49621 5.27479L6.55217 5.27524C6.72448 5.27532 6.89496 5.2754 7.06364 5.27547L9.00227 5.27639C9.1568 5.27647 9.3096 5.27655 9.46069 5.27663L11.6012 5.2778C11.7357 5.27788 11.8686 5.27796 11.9998 5.27804L13.4998 5.27899C13.6187 5.27907 13.736 5.27915 13.8518 5.27923L15.1712 5.28021C15.2753 5.28029 15.3781 5.28037 15.4794 5.28045L16.6298 5.28144C16.7202 5.28152 16.8094 5.28161 16.8972 5.28169L17.6533 5.28244C17.7335 5.28253 17.8125 5.28261 17.8902 5.28269L18.7658 5.28371C18.8341 5.28379 18.9012 5.28388 18.9672 5.28397L19.7065 5.285C19.7638 5.28508 19.8201 5.28517 19.8753 5.28526L20.3451 5.28604C20.3944 5.28613 20.4426 5.28622 20.4899 5.28631L21.0133 5.28737C21.0533 5.28746 21.0925 5.28754 21.1308 5.28763L21.4529 5.28844C21.4862 5.28853 21.5188 5.28862 21.5505 5.28871L21.8958 5.2898C21.9217 5.28989 21.9469 5.28998 21.9714 5.29007L22.1742 5.2909C22.1948 5.29099 22.2148 5.29108 22.2341 5.29118L22.4392 5.29229C22.4541 5.29239 22.4685 5.29248 22.4824 5.29258L22.5942 5.29342C22.6052 5.29352 22.6158 5.29361 22.6259 5.29371L22.7064 5.29457C22.7142 5.29466 22.7216 5.29476 22.7287 5.29485L22.7834 5.29572C22.7886 5.29582 22.7934 5.29592 22.798 5.29601L22.8327 5.29689C22.8358 5.29699 22.8388 5.29708 22.8416 5.29718L22.8667 5.29837C22.8682 5.29847 22.8696 5.29856 22.8709 5.29866C22.8827 5.29976 22.8844 5.29996 22.8862 5.30016C23.5592 5.39804 24.1514 5.74969 24.555 6.29105C24.9586 6.8312 25.1277 7.49702 25.0311 8.16405L23.8843 16.0887C23.668 17.5968 22.3581 18.7338 20.8355 18.7338H7.63869C6.04724 18.7338 4.69988 17.4916 4.57059 15.9026L3.4637 2.73838L1.64265 2.42419C1.14842 2.33719 0.818531 1.86954 0.903118 1.37531C0.990123 0.881078 1.46744 0.559646 1.95079 0.636983ZM6.30974 7.08779L5.64847 7.08738L6.37713 15.754C6.4303 16.421 6.97528 16.9213 7.64111 16.9213H20.8331C21.4627 16.9213 22.0004 16.4524 22.0898 15.8301L23.2378 7.90425C23.2644 7.71574 23.2173 7.52723 23.1025 7.37497C22.9889 7.22151 22.8221 7.12242 22.6336 7.09583C22.6249 7.09617 22.604 7.09647 22.5716 7.09675L22.4402 7.0975C22.4127 7.09761 22.3824 7.09772 22.3495 7.09782L21.665 7.09886C21.6072 7.0989 21.5472 7.09894 21.4849 7.09897L19.8753 7.0989C19.7855 7.09887 19.694 7.09883 19.6009 7.09879L17.764 7.09767C17.6539 7.09759 17.5427 7.09751 17.4303 7.09742L16.3909 7.09659C16.2725 7.09649 16.1533 7.09639 16.0332 7.09629L14.9322 7.09532C14.8079 7.09521 14.683 7.09509 14.5575 7.09498L13.7991 7.09428C13.6719 7.09416 13.5443 7.09405 13.4164 7.09393L12.2591 7.09285C12.1301 7.09272 12.0009 7.0926 11.8718 7.09248L11.0977 7.09176C10.9688 7.09164 10.8401 7.09153 10.7117 7.09141L9.9441 7.09071C9.81681 7.0906 9.68988 7.09048 9.5634 7.09037L8.43898 7.0894C8.31582 7.0893 8.19332 7.0892 8.07155 7.0891L6.65058 7.08802C6.53591 7.08794 6.42227 7.08786 6.30974 7.08779ZM18.8923 9.74137C19.3926 9.74137 19.7986 10.1474 19.7986 10.6477C19.7986 11.1479 19.3926 11.554 18.8923 11.554H15.5427C15.0412 11.554 14.6364 11.1479 14.6364 10.6477C14.6364 10.1474 15.0412 9.74137 15.5427 9.74137H18.8923Z" fill="white"/>
</svg>
