<svg width="13" height="13" viewBox="0 0 13 13" fill="none" xmlns="http://www.w3.org/2000/svg">
<path d="M8.97917 7.91667H8.41959L8.22125 7.72542C8.93941 6.89243 9.33412 5.82899 9.33333 4.72917C9.33333 3.81855 9.06331 2.92838 8.55739 2.17123C8.05148 1.41408 7.33241 0.823952 6.49111 0.475473C5.64981 0.126995 4.72406 0.0358171 3.83094 0.21347C2.93782 0.391123 2.11744 0.829627 1.47353 1.47353C0.829627 2.11744 0.391123 2.93782 0.21347 3.83094C0.0358171 4.72406 0.126995 5.64981 0.475473 6.49111C0.823952 7.33241 1.41408 8.05148 2.17123 8.55739C2.92838 9.06331 3.81855 9.33333 4.72917 9.33333C5.86959 9.33333 6.91792 8.91542 7.72542 8.22125L7.91667 8.41959V8.97917L11.4583 12.5138L12.5138 11.4583L8.97917 7.91667ZM4.72917 7.91667C2.96542 7.91667 1.54167 6.49292 1.54167 4.72917C1.54167 2.96542 2.96542 1.54167 4.72917 1.54167C6.49292 1.54167 7.91667 2.96542 7.91667 4.72917C7.91667 6.49292 6.49292 7.91667 4.72917 7.91667Z" fill="#267B87"/>
</svg>
