<svg width="94" height="34" viewBox="0 0 94 34" fill="none" xmlns="http://www.w3.org/2000/svg">
<path d="M94 0.549988L25.2312 29.831C19.5285 32.2437 14.7384 33.4539 10.8648 33.4539C6.47817 33.4539 3.29392 31.9186 1.31992 28.844C0.0783366 26.87 -0.285913 24.3672 0.223253 21.3318C0.73242 18.2964 2.08759 15.0652 4.28092 11.6263C6.11 8.84549 9.10625 5.19124 13.2775 0.659654C11.8627 2.88693 10.8252 5.33246 10.2068 7.89765C9.11017 12.5781 10.0972 16.013 13.1678 18.2063C14.6288 19.2286 16.638 19.7417 19.1995 19.7417C21.244 19.7417 23.547 19.4127 26.1085 18.7547L94 0.549988Z" fill="#FAFF23"/>
</svg>
